
<svg width="511px" height="74px" viewBox="0 0 511 74" version="1.1" xmlns="http://www.w3.org/2000/svg" xmlns:xlink="http://www.w3.org/1999/xlink">
    <g id="Design" stroke="none" stroke-width="1" fill="none" fill-rule="evenodd">
        <g id="Assets---material" transform="translate(-870.000000, -1662.000000)">
            <g id="assets" transform="translate(166.000000, 1472.000000)">
                <g id="Group-3" transform="translate(704.740099, 189.000000)">
                    <g id="img_logo" transform="translate(138.341584, 0.000000)" fill="#FFFFFF">
                        <path d="M40.7806931,60.77 L32.7608911,60.77 C32.0688263,60.77 31.507797,60.2103559 31.507797,59.52 L31.507797,56.37 C28.6067306,59.9595191 24.1772589,61.9723247 19.5582921,61.8 C8.53106436,61.8 0.230569307,52.8 0.230569307,40.8 C0.230569307,28.8 8.55111386,19.8 19.5582921,19.8 C24.185145,19.6324873 28.6179502,21.6616462 31.507797,25.27 L31.507797,22.19 C31.507797,21.4996441 32.0688263,20.94 32.7608911,20.94 L40.7806931,20.94 C41.4727578,20.94 42.0337871,21.4996441 42.0337871,22.19 L42.0337871,59.51 C42.0364598,59.8432499 41.9056186,60.1637673 41.6703276,60.400355 C41.4350366,60.6369428 41.1147785,60.7700107 40.7806931,60.77 L40.7806931,60.77 Z M11.257797,40.83 C11.257797,46.91 15.267698,51.83 21.5632426,51.83 C27.6983911,51.83 31.8686881,47.14 31.8686881,40.83 C31.8686881,34.52 27.7084158,29.83 21.5632426,29.83 C15.2576733,29.86 11.257797,34.75 11.257797,40.83 Z" id="Shape" fill-rule="nonzero"></path>
                        <path d="M78.8045792,21.79 L77.5915842,29.86 C77.5370156,30.214335 77.3313871,30.527772 77.0277188,30.7194925 C76.7240506,30.9112131 76.3520637,30.9624529 76.0076733,30.86 C74.3359426,30.3572475 72.6009408,30.0946094 70.8549505,30.08 C65.8425743,30.08 62.4441832,33.08 62.4441832,39.08 L62.4441832,59.51 C62.4470875,59.8503005 62.3107752,60.1770718 62.0667209,60.4148618 C61.8226666,60.6526519 61.4919702,60.7809023 61.1509901,60.77 L52.9106436,60.77 C52.2185788,60.77 51.6575495,60.2103559 51.6575495,59.52 L51.6575495,22.19 C51.6575495,21.4996441 52.2185788,20.94 52.9106436,20.94 L60.8201733,20.94 C61.1661779,20.9178643 61.5059123,21.0397219 61.7585577,21.2765843 C62.0112031,21.5134467 62.1541762,21.8441414 62.1534653,22.19 L62.1534653,25.29 C64.6696782,21.55 68.4991337,19.86 73.4012376,19.86 C74.9316243,19.8392114 76.458206,20.0173771 77.9424505,20.39 C78.5401086,20.5762623 78.9082064,21.1740117 78.8045792,21.79 Z" id="Path"></path>
                        <path d="M117.119183,28.19 L111.204579,33.11 C110.731528,33.5245573 110.023546,33.5245573 109.550495,33.11 C107.513533,31.0318542 104.714873,29.8725375 101.801361,29.9 C96.2376238,29.9 91.7766089,34.26 91.7766089,40.9 C91.7766089,47.54 96.1875,51.9 101.751238,51.9 C104.711969,51.8831585 107.550808,50.7217499 109.670792,48.66 C110.143685,48.2349989 110.862008,48.2349989 111.334901,48.66 L117.169307,53.66 C117.428308,53.8804374 117.587132,54.1958378 117.60978,54.5347077 C117.632427,54.8735775 117.516979,55.2072176 117.289604,55.46 C113.418051,59.7349495 107.865308,62.1062105 102.092079,61.95 C89.3606436,61.95 80.8295792,53.07 80.8295792,40.95 C80.8295792,28.83 89.3606436,19.95 102.092079,19.95 C107.858864,19.7622333 113.416652,22.1137068 117.289604,26.38 C117.51438,26.6397089 117.623261,26.9796252 117.591097,27.3212305 C117.558933,27.6628359 117.388506,27.9765835 117.119183,28.19 Z" id="Path"></path>
                        <path d="M134.973267,25.21 C137.820297,21.26 142.060767,19.87 146.431559,19.87 C155.453837,19.87 161.969926,26.16 161.969926,35.41 L161.969926,59.51 C161.969926,60.2003559 161.408896,60.76 160.716832,60.76 L152.476485,60.76 C151.78442,60.76 151.223391,60.2003559 151.223391,59.51 L151.223391,38.86 C151.223391,33.11 148.336262,29.94 143.434158,29.94 C138.822772,29.94 134.983292,32.94 134.983292,38.94 L134.983292,59.51 C134.983292,60.2003559 134.422263,60.76 133.730198,60.76 L125.489851,60.76 C124.797787,60.76 124.236757,60.2003559 124.236757,59.51 L124.236757,5.29 C124.225942,4.95333275 124.351795,4.62656031 124.585802,4.38371869 C124.819809,4.14087707 125.142162,4.00252191 125.479827,4 L133.720173,4 C134.412238,4 134.973267,4.55964406 134.973267,5.25 L134.973267,25.21 Z" id="Path"></path>
                        <path d="M183.45297,7.74 C183.629238,10.2602325 182.398532,12.6721749 180.252097,14.0130819 C178.105663,15.3539889 175.393049,15.4054924 173.197017,14.1470344 C171.000984,12.8885765 169.679159,10.5250982 169.759158,8 C169.698411,6.1430073 170.404289,4.34251144 171.711823,3.01930289 C173.019357,1.69609433 174.813967,0.966126938 176.676238,1 C180.358684,1.12355525 183.318199,4.0670278 183.45297,7.74 Z M180.756312,60.74 L172.515965,60.74 C171.823901,60.74 171.262871,60.1803559 171.262871,59.49 L171.262871,22.19 C171.262871,21.4996441 171.823901,20.94 172.515965,20.94 L180.756312,20.94 C181.448377,20.94 182.009406,21.4996441 182.009406,22.19 L182.009406,59.51 C182.015,60.1965092 181.464505,60.7590382 180.776361,60.77 L180.756312,60.74 Z" id="Shape" fill-rule="nonzero"></path>
                        <path d="M233.46646,40.83 C233.46646,52.83 225.145916,61.83 214.138738,61.83 C209.634056,62.0029408 205.301721,60.0912341 202.399752,56.65 L202.399752,73.45 C202.399752,74.1403559 201.838723,74.7 201.146658,74.7 L192.946411,74.7 C192.254346,74.7 191.693317,74.1403559 191.693317,73.45 L191.693317,22.19 C191.693317,21.4996441 192.254346,20.94 192.946411,20.94 L200.966213,20.94 C201.658278,20.94 202.219307,21.4996441 202.219307,22.19 L202.219307,25.33 C205.086348,21.71503 209.511235,19.6826757 214.128713,19.86 C225.135891,19.87 233.46646,28.87 233.46646,40.83 Z M201.858416,40.83 C201.858416,47.12 206.018688,51.83 212.113738,51.83 C218.459406,51.83 222.419183,46.94 222.419183,40.83 C222.419183,34.72 218.459406,29.83 212.113738,29.83 C206.018688,29.86 201.858416,34.54 201.858416,40.83 Z" id="Shape" fill-rule="nonzero"></path>
                        <path d="M267.72104,21.79 L266.508045,29.86 C266.453476,30.214335 266.247847,30.527772 265.944179,30.7194925 C265.640511,30.9112131 265.268524,30.9624529 264.924134,30.86 C263.252403,30.3572475 261.517401,30.0946094 259.771411,30.08 C254.759035,30.08 251.360644,33.08 251.360644,39.08 L251.360644,59.51 C251.360644,60.2003559 250.799614,60.76 250.10755,60.76 L241.867203,60.76 C241.531402,60.7653602 241.207497,60.6360343 240.968142,60.4010304 C240.728787,60.1660264 240.594016,59.8450151 240.594059,59.51 L240.594059,22.19 C240.594059,21.4996441 241.155089,20.94 241.847153,20.94 L249.756683,20.94 C250.448748,20.94 251.009777,21.4996441 251.009777,22.19 L251.009777,25.29 C253.52599,21.55 257.355446,19.86 262.25755,19.86 C263.787936,19.8392114 265.314518,20.0173771 266.798762,20.39 C267.420568,20.5517436 267.818944,21.1564715 267.72104,21.79 L267.72104,21.79 Z" id="Path"></path>
                        <path d="M285.765594,7.74 C285.812154,10.185483 284.547297,12.4699803 282.447484,13.7329439 C280.347672,14.9959075 277.731914,15.0454632 275.585541,13.8629439 C273.439169,12.6804245 272.088267,10.445483 272.041708,8 C271.980961,6.1430073 272.686839,4.34251144 273.994373,3.01930289 C275.301907,1.69609433 277.096517,0.966126938 278.958787,1 C282.652965,1.10811394 285.629912,4.05584349 285.765594,7.74 L285.765594,7.74 Z M283.068936,60.74 L274.828589,60.74 C274.136524,60.74 273.575495,60.1803559 273.575495,59.49 L273.575495,22.19 C273.575495,21.4996441 274.136524,20.94 274.828589,20.94 L283.068936,20.94 C283.761,20.94 284.32203,21.4996441 284.32203,22.19 L284.32203,59.51 C284.324702,59.8432499 284.193861,60.1637673 283.95857,60.400355 C283.723279,60.6369428 283.403021,60.7700107 283.068936,60.77 L283.068936,60.74 Z" id="Shape" fill-rule="nonzero"></path>
                        <path d="M331.709035,35.4 L331.709035,59.51 C331.709035,60.2003559 331.148005,60.76 330.455941,60.76 L322.215594,60.76 C321.523529,60.76 320.9625,60.2003559 320.9625,59.51 L320.9625,38.86 C320.9625,33.11 318.075371,29.94 313.173267,29.94 C308.561881,29.94 304.722401,32.94 304.722401,38.94 L304.722401,59.51 C304.722401,60.2003559 304.161372,60.76 303.469307,60.76 L295.22896,60.76 C294.536896,60.76 293.975866,60.2003559 293.975866,59.51 L293.975866,22.19 C293.975866,21.4996441 294.536896,20.94 295.22896,20.94 L303.178589,20.94 C303.870654,20.94 304.431683,21.4996441 304.431683,22.19 L304.431683,25.62 C307.278713,21.39 311.63948,19.87 316.170668,19.87 C325.243069,19.87 331.709035,26.16 331.709035,35.4 Z" id="Path"></path>
                        <path d="M367.076361,30.47 L353.873762,30.47 L353.873762,45 C353.873762,50 356.510272,51.78 359.888614,51.78 C362.128059,51.6517666 364.304069,50.989945 366.234282,49.85 C366.536796,49.6845953 366.894287,49.6509131 367.222497,49.7568921 C367.550707,49.8628711 367.8206,50.0991359 367.968564,50.41 L370.885767,56.59 C371.153752,57.1679996 370.947262,57.8546001 370.404579,58.19 C366.756338,60.5678631 362.481936,61.8104701 358.124257,61.76 C348.239851,61.76 343.167327,56.17 343.167327,45.85 L343.167327,30.47 L337.974505,30.47 C337.28244,30.47 336.721411,29.9103559 336.721411,29.22 L336.721411,22.22 C336.721411,21.5296441 337.28244,20.97 337.974505,20.97 L343.167327,20.97 L343.167327,15.3 C343.167773,14.6029149 343.649576,13.9980058 344.330198,13.84 L352.690842,11.89 C352.993699,11.8184821 353.312677,11.8913372 353.554165,12.0871841 C353.795653,12.2830309 353.932257,12.5796534 353.923886,12.89 L353.923886,20.96 L367.126485,20.96 C367.81855,20.96 368.379579,21.5196441 368.379579,22.21 L368.379579,29.21 C368.382598,29.5521004 368.244923,29.880485 367.998654,30.1185869 C367.752385,30.3566889 367.419047,30.4836978 367.076361,30.47 Z" id="Path"></path>
                    </g>
                    <g id="Group" transform="translate(0.000000, 1.000000)">

                        <polygon id="Path" fill="#EE2F7D" points="-2.84217094e-14 50.75 9.79418317 67.66 39.1566832 16.92 29.3725248 -7.10542736e-14"></polygon>
                        <polygon id="Path" fill="#00A6E1" points="74.5941832 0 29.3725248 0 39.1566832 16.92 61.7725248 16.92 81.3508663 50.75 103.966708 50.75"></polygon>
                    </g>
                </g>
            </g>
        </g>
    </g>
</svg>